<svg width="318" height="20" viewBox="0 0 318 20" fill="none" xmlns="http://www.w3.org/2000/svg">
<path d="M16.177 4.1521L16.3206 4.16675C16.4621 4.19497 16.5939 4.26434 16.6975 4.36792C16.8352 4.50577 16.9122 4.69264 16.9124 4.88745V14.0095C16.9123 14.4162 16.5836 14.7448 16.177 14.7449H10.6643V15.9255H12.5999C12.7759 15.9256 12.9451 15.9954 13.0696 16.1199C13.1938 16.2443 13.2638 16.4128 13.2639 16.5886C13.2639 16.7646 13.1939 16.9339 13.0696 17.0583C12.9451 17.1828 12.7759 17.2527 12.5999 17.2527H7.40064C7.22456 17.2527 7.05543 17.1829 6.93092 17.0583C6.80641 16.9338 6.73658 16.7647 6.73658 16.5886C6.73669 16.4127 6.80655 16.2443 6.93092 16.1199C7.05543 15.9954 7.22456 15.9255 7.40064 15.9255H9.33619V14.7449H3.82349C3.41698 14.7446 3.08822 14.4161 3.08814 14.0095V4.88745C3.08826 4.69246 3.16608 4.5058 3.30396 4.36792C3.44185 4.23004 3.62851 4.15221 3.82349 4.1521H16.177ZM4.41627 13.4177H15.5852V5.48022H4.41627V13.4177ZM7.14967 8.12769C7.32567 8.12774 7.49493 8.19756 7.61939 8.32202C7.74384 8.4465 7.8137 8.61573 7.81373 8.79175V11.4539C7.81373 11.6298 7.74374 11.7991 7.61939 11.9236C7.49493 12.048 7.32567 12.1179 7.14967 12.1179C6.97358 12.1179 6.80445 12.0481 6.67994 11.9236C6.55546 11.7991 6.4856 11.6299 6.4856 11.4539V8.79175C6.48563 8.6157 6.55546 8.44651 6.67994 8.32202C6.80443 8.19761 6.97366 8.12769 7.14967 8.12769ZM10.0003 6.47437C10.1761 6.47443 10.3446 6.54448 10.469 6.6687C10.5935 6.79321 10.6643 6.96235 10.6643 7.13843V11.4539C10.6643 11.6299 10.5935 11.7991 10.469 11.9236C10.3446 12.0479 10.1761 12.1179 10.0003 12.1179C9.82417 12.1179 9.65504 12.0481 9.53053 11.9236C9.40603 11.7991 9.33619 11.6299 9.33619 11.4539V7.13843C9.33619 6.96235 9.40602 6.79321 9.53053 6.6687C9.65502 6.54427 9.82423 6.47437 10.0003 6.47437ZM12.8508 9.29565C13.0267 9.29573 13.1952 9.36571 13.3196 9.48999C13.4441 9.6145 13.5149 9.78363 13.5149 9.95972V11.4539C13.5149 11.6299 13.4441 11.7991 13.3196 11.9236C13.1952 12.0479 13.0267 12.1178 12.8508 12.1179C12.6748 12.1179 12.5056 12.0481 12.3811 11.9236C12.2566 11.7991 12.1868 11.6299 12.1868 11.4539V9.95972C12.1868 9.78363 12.2566 9.6145 12.3811 9.48999C12.5056 9.36551 12.6748 9.29565 12.8508 9.29565Z" fill="#D0FF01" stroke="#D0FF01" stroke-width="0.25"/>
<path d="M26.604 13.817C25.538 14.922 23.861 15.767 21.573 16.365L20.832 15.221C23.25 14.571 24.888 13.765 25.72 12.803C25.772 12.738 25.811 12.673 25.863 12.621H20.962V11.347H26.578C26.89 10.593 27.072 9.735 27.124 8.786V7.174H28.437V8.786C28.385 9.735 28.242 10.593 28.008 11.347H32.051V12.621H27.462L27.345 12.829C29.126 13.531 30.764 14.337 32.246 15.26L31.492 16.443C29.893 15.364 28.268 14.493 26.604 13.817ZM22.873 8.89C23.783 9.254 24.628 9.696 25.382 10.216L24.68 11.295C23.874 10.697 23.055 10.229 22.197 9.891L22.873 8.89ZM24.199 7.083C25.083 7.434 25.902 7.863 26.656 8.383L25.954 9.462C25.161 8.864 24.355 8.409 23.523 8.084L24.199 7.083ZM31.986 5.406V8.149H30.66V6.654H22.314V8.149H20.988V5.406H25.837C25.707 5.068 25.577 4.769 25.434 4.483L26.825 4.249C26.968 4.6 27.098 4.99 27.228 5.406H31.986ZM37.927 5.185V14.987H36.627V14.207H35.21V15.299H33.884V5.185H37.927ZM35.21 12.946H36.627V10.255H35.21V12.946ZM35.21 8.994H36.627V6.42H35.21V8.994ZM39.916 9.124C40.696 10.346 41.307 11.399 41.723 12.296L40.592 13.076C40.15 12.114 39.552 11.022 38.798 9.826L39.916 9.124ZM42.711 16.222H40.384L40.085 14.909C40.839 14.961 41.554 14.987 42.23 14.987C42.516 14.987 42.672 14.831 42.672 14.519V7.876H38.408V6.563H42.672V4.431H44.05V6.563H45.454V7.876H44.05V14.857C44.05 15.767 43.595 16.222 42.711 16.222ZM52.565 4.34H53.852V16.352H52.565V13.622H50.199V12.4H52.565V10.515H50.927V9.293H52.565V7.499H50.667V6.277H52.565V4.34ZM48.002 16.235H46.819L46.52 14.922C46.884 14.974 47.222 15 47.534 15C47.872 15 48.041 14.87 48.041 14.636V11.984C47.651 12.127 47.248 12.27 46.858 12.4L46.52 11.022C47.027 10.918 47.534 10.775 48.041 10.606V7.98H46.793V6.667H48.041V4.366H49.367V6.667H50.381V7.98H49.367V10.086C49.718 9.93 50.069 9.748 50.42 9.566V10.957C50.069 11.126 49.718 11.295 49.367 11.451V14.974C49.367 15.806 48.912 16.235 48.002 16.235ZM55.009 4.34H56.309V6.277H58.389V7.499H56.309V9.293H58.064V10.515H56.309V12.4H58.48V13.622H56.309V16.352H55.009V4.34ZM64.434 5.003H70.83V6.342H64.434V5.003ZM64.122 8.227H71.389V9.566H69.387V15.013C69.387 15.871 68.906 16.3 67.944 16.3H66.059L65.76 14.974C66.358 15.026 66.93 15.065 67.476 15.065C67.827 15.065 68.009 14.935 68.009 14.675V9.566H64.122V8.227ZM62.172 4.392L63.407 4.977C62.718 6.394 61.535 7.681 59.858 8.838L59.442 7.473C60.664 6.602 61.574 5.575 62.172 4.392ZM62.783 7.382L64.005 7.954C63.667 8.63 63.238 9.28 62.718 9.904V16.352H61.379V11.243C60.937 11.607 60.456 11.971 59.962 12.322L59.546 10.983C61.002 9.969 62.081 8.76 62.783 7.382ZM72.611 6.563H74.132V4.327H75.458V6.563H76.68V7.863H75.458V8.656C75.939 9.189 76.42 9.774 76.888 10.411L76.121 11.568C75.861 11.048 75.64 10.593 75.458 10.229V16.313H74.132V10.632C73.82 11.581 73.43 12.465 72.988 13.284L72.39 11.789C73.17 10.645 73.742 9.332 74.106 7.863H72.611V6.563ZM77.135 5.315H79.917C79.8 5.029 79.67 4.756 79.54 4.496L80.892 4.262C81.022 4.574 81.139 4.925 81.269 5.315H84.103V6.511H82.907C82.803 6.927 82.686 7.317 82.556 7.694H84.272V9.878H82.985V8.864H78.227V9.878H76.94V7.694H78.76C78.656 7.265 78.539 6.875 78.409 6.511H77.135V5.315ZM81.282 7.694C81.425 7.304 81.542 6.914 81.62 6.511H79.735C79.839 6.875 79.93 7.278 80.034 7.694H81.282ZM76.979 10.32H80.008C79.878 9.956 79.748 9.631 79.618 9.319L80.957 9.085C81.087 9.449 81.217 9.865 81.347 10.32H84.376V11.542H80.138C80.112 11.841 80.086 12.127 80.034 12.413H83.635C83.622 14.415 83.401 15.572 82.972 15.91C82.803 16.04 82.543 16.131 82.205 16.209C81.88 16.261 81.568 16.287 81.256 16.3H80.606L80.255 15.091C80.697 15.091 81.1 15.104 81.477 15.104C81.763 15.091 81.958 15.039 82.088 14.935C82.205 14.831 82.283 14.389 82.309 13.583H79.722C79.241 14.831 78.383 15.806 77.135 16.495L76.42 15.351C77.915 14.623 78.721 13.349 78.851 11.542H76.979V10.32Z" fill="#D0FF01"/>
</svg>
